<svg width="46" height="154" viewBox="0 0 46 154" fill="none" xmlns="http://www.w3.org/2000/svg">
<g clip-path="url(#clip0_268_1556)">
<path d="M25.7 32H21V34.4H25.7V32Z" fill="#0062BC"/>
<path d="M25.7 90.8001H21V86.1001H25.7V90.8001ZM25.7 81.4001H21V76.7001H25.7V81.4001ZM25.7 72.0001H21V67.3001H25.7V72.0001ZM25.7 62.6001H21V57.9001H25.7V62.6001ZM25.7 53.2001H21V48.5001H25.7V53.2001ZM25.7 43.8001H21V39.1001H25.7V43.8001Z" fill="#0062BC"/>
<path d="M25.7 95.5H21V97.9H25.7V95.5Z" fill="#0062BC"/>
</g>
<g clip-path="url(#clip1_268_1556)">
<path d="M23 46C35.7025 46 46 35.7025 46 23C46 10.2975 35.7025 0 23 0C10.2975 0 0 10.2975 0 23C0 35.7025 10.2975 46 23 46Z" fill="url(#paint0_radial_268_1556)"/>
<path d="M23.0004 34.5999C29.4069 34.5999 34.6004 29.4064 34.6004 22.9999C34.6004 16.5934 29.4069 11.3999 23.0004 11.3999C16.5939 11.3999 11.4004 16.5934 11.4004 22.9999C11.4004 29.4064 16.5939 34.5999 23.0004 34.5999Z" fill="white"/>
<path d="M22.9998 31.2001C27.5285 31.2001 31.1998 27.5288 31.1998 23C31.1998 18.4713 27.5285 14.8 22.9998 14.8C18.4711 14.8 14.7998 18.4713 14.7998 23C14.7998 27.5288 18.4711 31.2001 22.9998 31.2001Z" fill="#00294F"/>
</g>
<g clip-path="url(#clip2_268_1556)">
<path d="M4 118.216C4 128.891 23.4568 154 23.4568 154C23.4568 154 43 128.891 43 118.216C43 107.626 34.2661 99 23.4568 99C12.7339 99 4 107.626 4 118.216Z" fill="#D65151"/>
<path d="M12.1289 117.618C12.1289 123.767 17.2309 128.806 23.4571 128.806C29.6832 128.806 34.7852 123.767 34.7852 117.618C34.7852 111.469 29.6832 106.43 23.4571 106.43C17.2309 106.43 12.1289 111.469 12.1289 117.618Z" fill="white"/>
</g>
<defs>
<radialGradient id="paint0_radial_268_1556" cx="0" cy="0" r="1" gradientUnits="userSpaceOnUse" gradientTransform="translate(22.9502 22.9502) rotate(-90) scale(22.9502)">
<stop stop-color="#0062BC"/>
<stop offset="1" stop-color="#7147E2" stop-opacity="0"/>
</radialGradient>
<clipPath id="clip0_268_1556">
<rect width="4.7" height="65.9" fill="white" transform="translate(21 32)"/>
</clipPath>
<clipPath id="clip1_268_1556">
<rect width="45.9" height="45.9" fill="white"/>
</clipPath>
<clipPath id="clip2_268_1556">
<rect width="39" height="55" fill="white" transform="translate(4 99)"/>
</clipPath>
</defs>
</svg>
